<?xml version="1.0" encoding="UTF-8"?>
<svg enable-background="new 0 0 615.3 500" version="1.1" viewBox="0 0 615.3 500" xml:space="preserve" xmlns="http://www.w3.org/2000/svg">
<title>London Overground roundel</title>
	<path d="m469.5 250c0 89.1-72.3 161.3-161.3 161.3-89.1 0-161.3-72.2-161.3-161.3s72.2-161.3 161.3-161.3c89 0 161.3 72.2 161.3 161.3m-161.4-250c-138.1 0-250 111.9-250 250s111.9 250 250 250 250-111.9 250-250-111.9-250-250-250" fill="#EF7B10"/>
	<rect y="199.5" width="615.3" height="101.1" fill="#0019A8"/><g fill="#fff">
	<path d="m81.2 277.1c-14.9 0-27.2-11.3-27.2-27 0-15.6 12.4-26.9 27.2-26.9 14.9 0 27.2 11.3 27.2 27 0 15.6-12.4 26.9-27.2 26.9m0-44c-9.7 0-17 7.4-17 17s7.2 17 17 17c9.7 0 17-7.4 17-17-0.1-9.6-7.3-17-17-17"/>
	<polygon points="138.1 276.1 128.9 276.1 108.7 224.2 119.8 224.2 133.5 261 146.9 224.2 157.8 224.2"/>
	<polygon points="162.9 276.1 162.9 224.2 195.2 224.2 195.2 233.2 173.1 233.2 173.1 244 191.3 244 191.3 253.1 173.1 253.1 173.1 266.8 197.1 266.8 197.1 276.1"/>
	<path d="m232.7 276.1-14.3-20.7h-4.7v20.7h-10.1v-51.9h16.8c10.6 0 17.7 5.6 17.7 15.2 0 6.4-3.6 11.4-9.8 13.7l16.3 23h-11.9zm-13.2-43.1h-5.8v13.6h4.8c5.9 0 9.4-2.6 9.4-7.2 0.1-4-3.1-6.4-8.4-6.4"/>
	<path d="m273.4 277.1c-16.3 0-28.2-11.4-28.2-27 0-15.2 12-26.9 28.1-26.9 6.1 0 12.2 1.6 18.1 4.6v10.6c-4.9-3.5-11.1-5.9-17.3-5.9-11.3 0-18.5 8.1-18.5 17.9 0 10 7.4 17.7 18.2 17.7 2.7 0 5.3-0.2 8-1.2v-11.1h-8.5v-8.9h18.6v24.7c-6.3 3.7-11.8 5.5-18.5 5.5"/>
	<path d="m329.6 276.1-14.3-20.7h-4.7v20.7h-10.1v-51.9h16.8c10.7 0 17.7 5.6 17.7 15.2 0 6.4-3.6 11.4-9.8 13.7l16.3 23h-11.9zm-13.2-43.1h-5.8v13.6h4.8c5.9 0 9.4-2.6 9.4-7.2 0.1-4-3.1-6.4-8.4-6.4"/>
	<path d="m369.2 277.1c-14.9 0-27.2-11.3-27.2-27 0-15.6 12.4-26.9 27.2-26.9 14.9 0 27.2 11.3 27.2 27 0.1 15.6-12.3 26.9-27.2 26.9m0-44c-9.7 0-17 7.4-17 17s7.2 17 17 17c9.7 0 17-7.4 17-17s-7.3-17-17-17"/>
	<path d="m445 268.6c-4.2 5.2-10.5 8.5-18.2 8.5-7.8 0-14-3.2-18.4-8.6-3.4-4.1-4.9-9-4.9-15.9v-28.4h10.1v28.5c0 8.9 5.1 14.7 13.1 14.7 8.2 0 13.2-5.8 13.2-14.7v-28.5h10.1v28.1c0 7.1-1.3 11.8-5 16.3"/>
	<polygon points="496.6 276.1 468.9 240.3 468.9 276.1 458.8 276.1 458.8 224.2 468.9 224.2 496.6 260.1 496.6 224.2 506.7 224.2 506.7 276.1"/>
	<path d="m530.2 276.1h-14.5v-51.9h17.7c18 0 27.6 11.8 27.6 25.3 0.1 13.9-10.1 26.6-30.8 26.6m1.5-43.1h-5.8v34h5c12.1 0 20-6.8 20-17.1-0.1-10.5-7.3-16.9-19.2-16.9"/>
</g>
</svg>
